<svg viewBox="0 0 1000 1000" xmlns="http://www.w3.org/2000/svg"><path d="M893 590q9-42 9-85-1-79-31.5-151T784 226.5t-128.5-85T504 113q-34 0-67 6-53-33-115.5-35T204 111.5t-87.5 83-33 116T115 426q-8 39-8 78 1 78 31.5 150T225 780t128.5 83T504 890q37 0 73-7 50 31 109 33t111.5-26 84.5-78 35-109.5T893 590zm-208 76q-27 35-68 51-51 20-105 19-63 2-120-25-34-18-55-50-19-26-21-58 0-18 13.5-30t31.5-11q15-1 27 9 12 12 18 28 8 20 20.5 35.5T457 658q25 11 52 10 39 2 72-18 12-7 19.5-20t7.5-27q2-22-14.5-37T555 545q-14-5-59-15l-4-1q-46-10-90-27-34-14-56-42.5t-21.5-65T347 328q26-32 64-45 48-17 99-16 40 0 79 11 30 8 55 27 20 15 32 37 10 17 10 35t-13 30.5-31 12.5q-15 1-27-9t-19-24q-12-24-33-41-28-17-61-14-33-2-62 15-11 6-17.5 16t-6.5 22.5 8.5 23 22 17.5 28.5 10q19 6 48 12 33 6 76 19 31 9 58 27 23 15 37 39 15 27 14 58 1 41-23 75z"/></svg>