<svg viewBox="0 0 1281 1088.5183" xmlns="http://www.w3.org/2000/svg"><path d="M646 27H100q-56 0-78 33T0 120v867q0 31 13.5 44t22.5 16q10 4 30.5 4t35.5-18q194-224 228-264l34-40q5-5 7-5.5t7-.5h167q52 0 67.5-29t20.5-50l98-486q12-64-6.5-97.5T646 27zm-32 148l-23 119q-2 10-12.5 18.5T557 321H344q-18 0-29.5 11T303 361v26q0 18 11.5 30t29.5 12h181q12 0 22 11t8 25q-3 13-12.5 61.5T532 583q-2 7-10.5 17T498 610H351q-20 0-29.5 4.5T298 635l-29 35.5Q240 706 119 851q-1 2-2.5 1.5T115 851V173q0-11 9.5-22t24.5-11h438q12 0 21 10t6 25z"/></svg>