<svg viewBox="0 0 1024 1028.0138" xmlns="http://www.w3.org/2000/svg"><path d="M811 602.014v-261q0-54-37-91t-91-37H555q-20 0-31.5 12t-11.5 31 11.5 31 31.5 12h128q19 0 30.5 11.5t11.5 30.5v261q-54 12-91 58.5t-37 107.5q0 70 50.5 120.5t120.5 50.5 120.5-50.5 50.5-120.5q0-61-37-105.5t-91-60.5zm-43 251q-35 0-60-25t-25-60 25-60 60-25 60 25 25 60-25 60-60 25zm-512-768q-70 0-120.5 50.5T85 256.014q0 61 37 105.5t91 60.5v474q0 19 12 31t31 12 31-12 12-31v-474q54-12 91-58.5t37-107.5q0-70-50.5-120.5T256 85.014zm0 256q-35 0-60-25t-25-60 25-60 60-25 60 25 25 60-25 60-60 25z"/></svg>